<svg xmlns="http://www.w3.org/2000/svg" width="900" height="463" viewBox="0 0 900 463" role="img" aria-labelledby="title desc">
<title id="title">Variação em 7 dias: Investimentos EA FC: Volantes em 24/07 — PC</title>
<desc id="desc">Gráfico gerado a partir da tabela publicada neste artigo.</desc>
<rect width="100%" height="100%" rx="20" fill="#0f172a"/>
<text x="28" y="42" fill="#f8fafc" font-family="system-ui,sans-serif" font-size="23" font-weight="700">Variação em 7 dias</text>
<text x="28" y="70" fill="#94a3b8" font-family="system-ui,sans-serif" font-size="15">Dados do recorte publicado no artigo</text>
<text x="28" y="117" fill="#e2e8f0" font-family="system-ui,sans-serif" font-size="16">Edson Álvarez</text>
<rect x="285" y="95" width="480" height="28" rx="7" fill="#22c55e"/>
<text x="775" y="116" fill="#f8fafc" font-family="system-ui,sans-serif" font-size="15" font-weight="700">+79.4%</text>
<text x="28" y="175" fill="#e2e8f0" font-family="system-ui,sans-serif" font-size="16">Hakan Çalhanoğlu</text>
<rect x="285" y="153" width="438" height="28" rx="7" fill="#22c55e"/>
<text x="733" y="174" fill="#f8fafc" font-family="system-ui,sans-serif" font-size="15" font-weight="700">+72.5%</text>
<text x="28" y="233" fill="#e2e8f0" font-family="system-ui,sans-serif" font-size="16">Wouter Burger</text>
<rect x="285" y="211" width="415" height="28" rx="7" fill="#22c55e"/>
<text x="710" y="232" fill="#f8fafc" font-family="system-ui,sans-serif" font-size="15" font-weight="700">+68.6%</text>
<text x="28" y="291" fill="#e2e8f0" font-family="system-ui,sans-serif" font-size="16">Ryan Yates</text>
<rect x="285" y="269" width="273" height="28" rx="7" fill="#22c55e"/>
<text x="568" y="290" fill="#f8fafc" font-family="system-ui,sans-serif" font-size="15" font-weight="700">+45.1%</text>
<text x="28" y="349" fill="#e2e8f0" font-family="system-ui,sans-serif" font-size="16">Dunga</text>
<rect x="285" y="327" width="222" height="28" rx="7" fill="#22c55e"/>
<text x="517" y="348" fill="#f8fafc" font-family="system-ui,sans-serif" font-size="15" font-weight="700">+36.8%</text>
<text x="28" y="407" fill="#e2e8f0" font-family="system-ui,sans-serif" font-size="16">Mattéo Guendouzi</text>
<rect x="285" y="385" width="114" height="28" rx="7" fill="#22c55e"/>
<text x="409" y="406" fill="#f8fafc" font-family="system-ui,sans-serif" font-size="15" font-weight="700">+18.8%</text>
</svg>
