<svg xmlns="http://www.w3.org/2000/svg" width="900" height="463" viewBox="0 0 900 463" role="img" aria-labelledby="title desc">
<title id="title">Variação em 7 dias: Investimentos EA FC: Volantes em 17/07 — PC</title>
<desc id="desc">Gráfico gerado a partir da tabela publicada neste artigo.</desc>
<rect width="100%" height="100%" rx="20" fill="#0f172a"/>
<text x="28" y="42" fill="#f8fafc" font-family="system-ui,sans-serif" font-size="23" font-weight="700">Variação em 7 dias</text>
<text x="28" y="70" fill="#94a3b8" font-family="system-ui,sans-serif" font-size="15">Dados do recorte publicado no artigo</text>
<text x="28" y="117" fill="#e2e8f0" font-family="system-ui,sans-serif" font-size="16">Granit Xhaka</text>
<rect x="285" y="95" width="480" height="28" rx="7" fill="#22c55e"/>
<text x="775" y="116" fill="#f8fafc" font-family="system-ui,sans-serif" font-size="15" font-weight="700">+76.0%</text>
<text x="28" y="175" fill="#e2e8f0" font-family="system-ui,sans-serif" font-size="16">Wouter Burger</text>
<rect x="285" y="153" width="479" height="28" rx="7" fill="#22c55e"/>
<text x="774" y="174" fill="#f8fafc" font-family="system-ui,sans-serif" font-size="15" font-weight="700">+75.8%</text>
<text x="28" y="233" fill="#e2e8f0" font-family="system-ui,sans-serif" font-size="16">Mattéo Guendouzi</text>
<rect x="285" y="211" width="389" height="28" rx="7" fill="#22c55e"/>
<text x="684" y="232" fill="#f8fafc" font-family="system-ui,sans-serif" font-size="15" font-weight="700">+61.6%</text>
<text x="28" y="291" fill="#e2e8f0" font-family="system-ui,sans-serif" font-size="16">Sammy Braybrooke</text>
<rect x="285" y="269" width="344" height="28" rx="7" fill="#22c55e"/>
<text x="639" y="290" fill="#f8fafc" font-family="system-ui,sans-serif" font-size="15" font-weight="700">+54.4%</text>
<text x="28" y="349" fill="#e2e8f0" font-family="system-ui,sans-serif" font-size="16">Douglas Luiz</text>
<rect x="285" y="327" width="301" height="28" rx="7" fill="#22c55e"/>
<text x="596" y="348" fill="#f8fafc" font-family="system-ui,sans-serif" font-size="15" font-weight="700">+47.7%</text>
<text x="28" y="407" fill="#e2e8f0" font-family="system-ui,sans-serif" font-size="16">Patri Guijarro</text>
<rect x="285" y="385" width="271" height="28" rx="7" fill="#22c55e"/>
<text x="566" y="406" fill="#f8fafc" font-family="system-ui,sans-serif" font-size="15" font-weight="700">+42.9%</text>
</svg>
