<svg xmlns="http://www.w3.org/2000/svg" width="900" height="463" viewBox="0 0 900 463" role="img" aria-labelledby="title desc">
<title id="title">Variação em 7 dias: Momentum de Volantes no EA FC em 31/05 — PS</title>
<desc id="desc">Gráfico gerado a partir da tabela publicada neste artigo.</desc>
<rect width="100%" height="100%" rx="20" fill="#0f172a"/>
<text x="28" y="42" fill="#f8fafc" font-family="system-ui,sans-serif" font-size="23" font-weight="700">Variação em 7 dias</text>
<text x="28" y="70" fill="#94a3b8" font-family="system-ui,sans-serif" font-size="15">Dados do recorte publicado no artigo</text>
<text x="28" y="117" fill="#e2e8f0" font-family="system-ui,sans-serif" font-size="16">Patri Guijarro</text>
<rect x="285" y="95" width="480" height="28" rx="7" fill="#22c55e"/>
<text x="775" y="116" fill="#f8fafc" font-family="system-ui,sans-serif" font-size="15" font-weight="700">+61.0%</text>
<text x="28" y="175" fill="#e2e8f0" font-family="system-ui,sans-serif" font-size="16">Georgia Stanway</text>
<rect x="285" y="153" width="422" height="28" rx="7" fill="#22c55e"/>
<text x="717" y="174" fill="#f8fafc" font-family="system-ui,sans-serif" font-size="15" font-weight="700">+53.6%</text>
<text x="28" y="233" fill="#e2e8f0" font-family="system-ui,sans-serif" font-size="16">Aleksandar Stanković</text>
<rect x="285" y="211" width="371" height="28" rx="7" fill="#22c55e"/>
<text x="666" y="232" fill="#f8fafc" font-family="system-ui,sans-serif" font-size="15" font-weight="700">+47.1%</text>
<text x="28" y="291" fill="#e2e8f0" font-family="system-ui,sans-serif" font-size="16">João Neves</text>
<rect x="285" y="269" width="366" height="28" rx="7" fill="#22c55e"/>
<text x="661" y="290" fill="#f8fafc" font-family="system-ui,sans-serif" font-size="15" font-weight="700">+46.5%</text>
<text x="28" y="349" fill="#e2e8f0" font-family="system-ui,sans-serif" font-size="16">Aleksandar Pavlović</text>
<rect x="285" y="327" width="308" height="28" rx="7" fill="#22c55e"/>
<text x="603" y="348" fill="#f8fafc" font-family="system-ui,sans-serif" font-size="15" font-weight="700">+39.1%</text>
<text x="28" y="407" fill="#e2e8f0" font-family="system-ui,sans-serif" font-size="16">Claudio Marchisio</text>
<rect x="285" y="385" width="297" height="28" rx="7" fill="#22c55e"/>
<text x="592" y="406" fill="#f8fafc" font-family="system-ui,sans-serif" font-size="15" font-weight="700">+37.7%</text>
</svg>
